<?xml version="1.0" encoding="UTF-8" standalone="no"?>
<svg
   width="48"
   height="48"
   viewBox="0 -960 960 960"
   version="1.1"
   id="svg1"
   sodipodi:docname="logo-header-compact.svg"
   inkscape:version="1.4 (e7c3feb100, 2024-10-09)"
   xmlns:inkscape="http://www.inkscape.org/namespaces/inkscape"
   xmlns:sodipodi="http://sodipodi.sourceforge.net/DTD/sodipodi-0.dtd"
   xmlns="http://www.w3.org/2000/svg"
   xmlns:svg="http://www.w3.org/2000/svg">
  <defs
     id="defs1" />
  <sodipodi:namedview
     id="namedview1"
     pagecolor="#ffffff"
     bordercolor="#000000"
     borderopacity="0.25"
     inkscape:showpageshadow="2"
     inkscape:pageopacity="0.0"
     inkscape:pagecheckerboard="0"
     inkscape:deskcolor="#d1d1d1"
     inkscape:zoom="16.270833"
     inkscape:cx="24"
     inkscape:cy="24"
     inkscape:window-width="945"
     inkscape:window-height="1010"
     inkscape:window-x="0"
     inkscape:window-y="0"
     inkscape:window-maximized="1"
     inkscape:current-layer="svg1" />
  <path
     d="M480-80q-137 0-228.5-94T160-408q0-64 29-127t72.5-121q43.5-58 94-108.5T450-854q7-6 14.5-8.5T480-865q8 0 15.5 2.5T510-854q44 39 94.5 89.5t94 108.5Q742-598 771-535t29 127q0 140-91.5 234T480-80Zm0-60q112 0 186-76.5T740-408q0-79-66.5-179.5T480-800Q353-688 286.5-587.5T220-408q0 115 74 191.5T480-140Zm0-340Zm-1 272q16 0 24.5-5.5T512-230q0-11-8.5-17t-25.5-6q-42 0-85.5-26.5T337-373q-2-9-9-14.5t-15-5.5q-11 0-17 8.5t-4 17.5q15 84 71 121.5T479-208Z"
     id="path1"
     style="fill:#ffffff" />
</svg>
